<svg xmlns="http://www.w3.org/2000/svg" width="682.667" height="682.667" preserveAspectRatio="xMidYMid meet" version="1.0" viewBox="0 0 512 512"><g fill="#000" stroke="none"><path fill="#3178c6" d="M383 5106 c-181 -44 -334 -202 -372 -384 -16 -75 -16 -4249 0 -4324 39 -187 200 -348 387 -387 75 -16 4249 -16 4324 0 92 19 177 67 249 138 71 72 119 157 138 249 16 75 16 4249 0 4324 -39 187 -200 348 -387 387 -81 17 -4268 14 -4339 -3z m3987 -2390 c47 -9 118 -26 158 -37 l72 -22 0 -233 0 -234 -62 35 c-249 136 -621 154 -768 37 -41 -33 -80 -104 -80 -147 1 -45 33 -107 79 -152 51 -49 135 -96 311 -175 182 -81 264 -123 332 -169 126 -86 221 -207 261 -334 32 -101 31 -300 0 -400 -74 -232 -251 -371 -554 -436 -87 -19 -137 -23 -309 -23 -250 -1 -410 24 -576 91 l-64 25 0 249 c0 137 1 249 3 249 2 0 28 -18 58 -41 74 -56 217 -123 319 -151 72 -19 109 -23 240 -23 138 1 161 3 213 24 72 28 124 73 148 126 25 53 23 90 -5 150 -45 98 -136 160 -407 276 -176 75 -252 117 -346 191 -153 120 -233 288 -233 488 0 345 238 575 666 645 115 19 423 13 544 -9z m-1400 -231 l0 -205 -320 0 -320 0 0 -915 0 -915 -255 0 -255 0 0 915 0 915 -320 0 -320 0 0 205 0 205 895 0 895 0 0 -205z" transform="translate(0.000000,512.000000) scale(0.100000,-0.100000)"/></g></svg>